# xmcd
#
# Track frame offsets:
# 150
# 9829
# 18170
# 26409
# 40764
# 50118
# 61642
# 72522
# 80964
# 90038
# 102466
#
# Disc length: 1560 seconds
#
#
# Revision: 0
# Processed by: cddbd v1.5.1PL0 Copyright (c) Steve Scherf et al.
# Submitted via: FreeRIP 2.91 
#
DISCID=7d06160b
DTITLE=Gospel Music - More Southern Gospel Classics - Volume 1
DYEAR=1900
DGENRE=Gospel
TTITLE0=How Great Thou Art - JD Sumner
TTITLE1=I'll Live In Glory - Spears
TTITLE2=Gonna Shout Hallelujah - Masters V
TTITLE3=What A Day That Will Be - Hovie Lister
TTITLE4=King Jesus -Kingsmen
TTITLE5=I Must Tell Jesus- Blackwoods
TTITLE6=Belshazzar - Johnny Cash
TTITLE7=Goodbye Devil - Wendy Bagwell * Sunliters
TTITLE8=I'm Glory Bound - Carter Family
TTITLE9=The Uncloudy Day - Swanee River Boys
TTITLE10=He Rose Again - Blackwoods
EXTD=
EXTT0=
EXTT1=
EXTT2=
EXTT3=
EXTT4=
EXTT5=
EXTT6=
EXTT7=
EXTT8=
EXTT9=
EXTT10=
PLAYORDER=
